<?xml version="1.0" encoding="UTF-8" standalone="no"?>
<svg
   xmlns:dc="http://purl.org/dc/elements/1.1/"
   xmlns:cc="http://creativecommons.org/ns#"
   xmlns:rdf="http://www.w3.org/1999/02/22-rdf-syntax-ns#"
   xmlns:svg="http://www.w3.org/2000/svg"
   xmlns="http://www.w3.org/2000/svg"
   xmlns:sodipodi="http://sodipodi.sourceforge.net/DTD/sodipodi-0.dtd"
   xmlns:inkscape="http://www.inkscape.org/namespaces/inkscape"
   enable-background="new 0 0 200 200"
   height="200px"
   id="Layer_1"
   version="1.1"
   viewBox="0 0 200 200"
   width="200px"
   xml:space="preserve"
   inkscape:version="0.91 r13725"
   sodipodi:docname="cd-icon-job.svg"><metadata
     id="metadata9"><rdf:RDF><cc:Work
         rdf:about=""><dc:format>image/svg+xml</dc:format><dc:type
           rdf:resource="http://purl.org/dc/dcmitype/StillImage" /></cc:Work></rdf:RDF></metadata><defs
     id="defs7" /><sodipodi:namedview
     pagecolor="#ffffff"
     bordercolor="#666666"
     borderopacity="1"
     objecttolerance="10"
     gridtolerance="10"
     guidetolerance="10"
     inkscape:pageopacity="0"
     inkscape:pageshadow="2"
     inkscape:window-width="1600"
     inkscape:window-height="837"
     id="namedview5"
     showgrid="false"
     inkscape:zoom="1.18"
     inkscape:cx="-199.15254"
     inkscape:cy="100"
     inkscape:window-x="-8"
     inkscape:window-y="-8"
     inkscape:window-maximized="1"
     inkscape:current-layer="Layer_1" /><path
     d="m 200,51.813 0,34.62 c -1.312,5.54 -4.219,10.628 -8.513,14.755 -6.04,5.797 -14.09,8.992 -22.655,8.992 l -53.852,0 0,-10.54 c 0,-4.454 -3.645,-8.098 -8.099,-8.098 l -13.763,0 c -4.452,0 -8.096,3.645 -8.096,8.098 l 0,10.54 -53.855,0 c -8.565,0 -16.613,-3.195 -22.655,-8.992 C 4.214,97.067 1.312,91.975 0,86.437 L 0,51.813 C 0,44.35 6.11,38.24 13.574,38.24 l 172.854,0 c 7.463,0 13.572,6.11 13.572,13.573 z m -93.118,77.004 c 0.713,0 1.308,-0.596 1.308,-1.308 l 0,-10.542 0,-6.787 0,-10.54 c 0,-0.712 -0.595,-1.312 -1.308,-1.312 l -13.764,0 c -0.71,0 -1.312,0.6 -1.312,1.312 l 0,10.54 0,6.787 0,10.542 c 0,0.712 0.602,1.308 1.312,1.308 l 13.764,0 z m 89.308,-22.734 c -7.316,7.017 -17.026,10.885 -27.358,10.885 l -53.852,0 0,10.542 c 0,4.448 -3.645,8.095 -8.099,8.095 l -13.763,0 c -4.452,0 -8.096,-3.646 -8.096,-8.095 l 0,-10.542 -53.855,0 C 20.837,116.968 11.125,113.1 3.81,106.083 2.42,104.748 1.148,103.331 0,101.844 l 0,73.489 c 0,7.469 6.11,13.574 13.574,13.574 l 172.854,0 c 7.463,0 13.572,-6.105 13.572,-13.574 l 0,-73.489 c -1.15,1.487 -2.417,2.904 -3.81,4.239 z M 131.296,15.069 c -2.652,-2.652 -6.127,-3.977 -9.599,-3.977 l -43.39,0 c -3.474,0 -6.951,1.325 -9.601,3.977 -2.648,2.65 -3.974,6.124 -3.974,9.597 l 0,6.787 11.535,0 0,-6.787 c 0,-0.385 0.105,-0.948 0.6,-1.44 0.49,-0.492 1.052,-0.599 1.44,-0.599 l 43.391,0 c 0.382,0 0.946,0.107 1.437,0.599 0.494,0.492 0.599,1.055 0.599,1.44 l 0,6.787 11.535,0 0,-6.787 c -0.001,-3.473 -1.325,-6.946 -3.973,-9.597 z"
     id="path3"
     inkscape:connector-curvature="0"
     style="fill:#333f4f" /></svg>